<svg enable-background="new 0 0 360 360" viewBox="0 0 360 360" xmlns="http://www.w3.org/2000/svg"><g fill="#fff"><path d="m149.8 109.8h140.3v140.3h-140.3z" transform="matrix(.70709444 -.70711912 .70711912 .70709444 -62.868601 208.235517)"/><path d="m316.4 118.6-3.9-3.9-17.9 17.9-11.7-11.7 17.9-17.9-3.9-3.9-17.9 17.9-11.7-11.7 17.9-17.9-3.9-3.9-17.9 17.9-43.5-43.5-43.3 43.3-17.7-17.7-3.9 3.9 17.7 17.7-11.7 11.8-17.7-17.7-3.9 3.9 17.7 17.7-11.7 11.7-17.7-17.7-3.9 3.9 17.7 17.7-39.7 39.7-58.9-58.9v37.9h-24.9v5.5h24.9v16.6h-24.9v5.5h24.9v16.6h-24.9v5.5h24.9v37.9l58.9-58.9 39.6 39.6-17.6 17.6 3.9 3.9 17.6-17.6 11.7 11.7-17.6 17.6 3.9 3.9 17.6-17.6 11.7 11.7-17.6 17.7 3.9 3.9 17.6-17.6 43.5 43.5 43.6-43.6 17.7 17.7 3.9-3.9-17.7-17.7 11.7-11.7 17.7 17.7 3.9-3.9-17.7-17.7 11.7-11.7 17.7 17.7 3.9-3.9-17.7-17.7 43.3-43.4-43.5-43.5zm-96.5 175.7-114.2-114.3 114.2-114.3 114.3 114.3zm-171.5-64.8v-98.9l49.4 49.4z"/></g></svg>