<svg fill="none" height="600" viewBox="0 0 1200 600" width="1200" xmlns="http://www.w3.org/2000/svg"><path d="m0 0h1200v600h-1200z" fill="#fff"/><g fill="#005cb9"><path d="m321.301 248.948-3.236-3.257-14.863 14.959-9.7-9.794 14.832-14.938-3.247-3.268-14.863 14.959-9.731-9.793 14.863-14.949-3.236-3.268-14.863 14.959-36.127-36.339-35.948 36.191-14.695-14.833-3.247 3.269 14.737 14.822-9.731 9.846-14.727-14.833-3.247 3.269 14.738 14.832-9.679 9.742-14.737-14.833-3.247 3.257 14.737 14.833-33.015 33.176-48.8943-49.2v31.7h-20.6345v4.618h20.6345v13.842h-20.6345v4.617h20.6345v13.853h-20.6345v4.607h20.6345v31.7l48.8943-49.2 32.837 33.05-14.664 14.695 3.247 3.269 14.602-14.76 9.73 9.794-14.601 14.696 3.247 3.268 14.601-14.696 9.731 9.794-14.664 14.696 3.247 3.268 14.601-14.707 36.147 36.371 36.21-36.444 14.738 14.833 3.236-3.268-14.695-14.833 9.741-9.794 14.737 14.833 3.248-3.268-14.738-14.823 9.731-9.793 14.737 14.833 3.237-3.269-14.738-14.832 35.948-36.181-36.084-36.318zm-80.171 146.759-94.824-95.481 94.824-95.471 94.909 95.471zm-142.4513-54.156v-82.651l41.1433 41.326z"/><path d="m241.117 217.258-82.469 82.968 82.469 82.968 82.469-82.968z"/><path d="m512.891 294.539v-.513c10.443-4.794 15.75-13.868 15.75-25.167 0-19.517-15.065-32.699-42.286-32.699h-44.512v119.84h52.216c25.166 0 39.033-12.669 39.033-33.384 0-14.552-6.676-23.968-20.201-28.077zm-25.338-32.699c7.704 0 11.984 4.451 11.984 10.957 0 6.848-4.28 10.614-11.984 10.614h-15.579v-21.571zm2.739 68.48h-18.318v-21.914h18.318c7.362 0 11.128 3.767 11.128 11.128 0 7.362-3.766 10.786-11.128 10.786zm94.316-3.253v-90.907h-30.816v119.84h74.3v-28.933zm108.815 30.987c29.96 0 48.449-17.976 48.449-48.963v-72.931h-30.816v70.363c0 15.579-7.19 22.427-17.633 22.427-10.444 0-17.634-6.848-17.634-22.427v-70.363h-30.816v72.931c0 30.987 18.49 48.963 48.45 48.963z"/></g><path d="m843.683 241.81v-5.65h-69.508v119.84h5.992v-55.469h60.605v-5.649h-60.605v-53.072zm33.413 114.19h5.992v-119.84h-5.992zm80.126 2.054c23.112 0 39.204-14.552 39.204-34.411 0-15.408-9.416-24.31-32.528-29.446l-9.929-2.397c-22.941-5.136-30.645-12.326-30.645-24.824 0-16.093 12.84-27.221 31.843-27.221 17.805 0 30.987 9.93 33.384 27.906h6.163c-2.054-20.373-18.147-33.555-39.547-33.555-21.913 0-38.006 13.696-38.006 32.87 0 15.237 9.587 24.482 32.014 29.618l10.101 2.225c23.112 5.136 30.987 12.498 30.987 25.167 0 15.921-13.011 28.419-33.041 28.419-18.832 0-33.727-11.128-36.124-30.816h-6.163c2.055 22.598 19.688 36.465 42.287 36.465zm147.738-121.894v57.352h-70.53v-57.352h-6v119.84h6v-56.838h70.53v56.838h5.99v-119.84z" fill="#000"/></svg>